<?xml version="1.0" encoding="UTF-8" standalone="no"?><!-- Generator: Gravit.io --><svg xmlns="http://www.w3.org/2000/svg" xmlns:xlink="http://www.w3.org/1999/xlink" style="isolation:isolate" viewBox="264.674 177.845 925.978 570.011" width="925.978pt" height="570.011pt"><defs><clipPath id="_clipPath_WE9fhoGHfWnNenG9Df7OiBW3QMVfYA3L"><rect x="264.674" y="177.845" width="925.978" height="570.011"/></clipPath></defs><g clip-path="url(#_clipPath_WE9fhoGHfWnNenG9Df7OiBW3QMVfYA3L)"><path d=" M 873.173 487.341 C 873.173 487.341 872.683 484.334 872.397 484.361 L 817.831 489.626 C 813.49 490.045 810.118 493.508 809.813 497.859 L 808.314 519.344 L 766.101 522.355 L 763.229 502.883 C 762.59 498.552 758.808 495.287 754.43 495.287 L 696.839 495.287 C 692.463 495.287 688.68 498.552 688.041 502.883 L 685.168 522.355 L 642.955 519.344 L 641.455 497.859 C 641.151 493.506 637.779 490.044 633.437 489.624 L 578.845 484.361 C 578.563 484.334 578.356 487.344 578.074 487.344 L 578.001 499.152 L 624.235 506.608 L 625.749 528.286 C 626.056 532.674 629.596 536.223 633.988 536.538 L 692.125 540.685 C 692.345 540.7 692.563 540.709 692.78 540.709 C 697.149 540.709 700.925 537.443 701.564 533.111 L 704.519 513.075 L 746.752 513.075 L 749.706 533.111 C 750.344 537.441 754.125 540.708 758.5 540.708 C 758.714 540.708 758.928 540.7 759.138 540.685 L 817.283 536.538 C 821.673 536.223 825.215 532.674 825.522 528.286 L 827.034 506.608 L 873.249 499.119 L 873.173 487.341 Z " fill="rgb(255,255,255)"/><path d=" M 691.443 271.315 C 676.085 274.729 660.892 279.481 646.648 286.651 C 646.974 299.228 647.787 311.279 649.435 323.52 C 643.904 327.064 638.09 330.105 632.923 334.254 C 627.674 338.292 622.311 342.157 617.558 346.881 C 608.062 340.6 598.012 334.697 587.658 329.486 C 576.497 341.498 566.06 354.463 557.535 368.97 C 563.949 379.346 570.645 389.071 577.875 398.3 L 578.077 398.3 L 578.077 487.339 C 578.239 487.34 578.404 487.347 578.565 487.362 L 633.151 492.624 C 636.01 492.9 638.251 495.202 638.45 498.067 L 640.133 522.163 L 687.748 525.562 L 691.028 503.322 C 691.453 500.438 693.927 498.302 696.844 498.302 L 754.434 498.302 C 757.349 498.302 759.823 500.438 760.248 503.322 L 763.528 525.562 L 811.145 522.163 L 812.826 498.067 C 813.027 495.202 815.266 492.901 818.125 492.624 L 872.689 487.362 C 872.85 487.347 873.013 487.34 873.175 487.339 L 873.175 480.233 L 873.199 480.225 L 873.199 398.299 L 873.4 398.299 C 880.631 389.07 887.323 379.344 893.74 368.969 C 885.218 354.461 874.776 341.496 863.615 329.485 C 853.264 334.696 843.209 340.598 833.713 346.88 C 828.961 342.157 823.609 338.292 818.352 334.253 C 813.187 330.105 807.365 327.063 801.844 323.519 C 803.488 311.278 804.302 299.227 804.629 286.65 C 790.384 279.481 775.192 274.728 759.826 271.314 C 753.691 281.625 748.081 292.789 743.195 303.705 C 737.401 302.737 731.58 302.378 725.752 302.309 L 725.752 302.301 C 725.712 302.301 725.674 302.309 725.639 302.309 C 725.603 302.309 725.564 302.301 725.528 302.301 L 725.528 302.309 C 719.688 302.378 713.872 302.737 708.077 303.705 C 703.194 292.79 697.588 281.625 691.444 271.314 L 691.443 271.315 Z  M 577.983 499.115 C 578.006 504.39 578.073 510.169 578.073 511.32 C 578.073 563.158 643.833 588.074 725.533 588.361 L 725.734 588.361 C 807.435 588.074 873.174 563.158 873.174 511.32 C 873.174 510.148 873.246 504.393 873.27 499.115 L 824.206 503.847 L 822.515 528.072 C 822.311 530.992 819.989 533.316 817.069 533.525 L 758.924 537.674 C 758.783 537.684 758.641 537.689 758.501 537.689 C 755.611 537.689 753.119 535.567 752.692 532.666 L 749.358 510.055 L 701.915 510.055 L 698.581 532.666 C 698.133 535.709 695.413 537.898 692.349 537.674 L 634.204 533.525 C 631.284 533.316 628.962 530.992 628.758 528.072 L 627.069 503.847 L 577.985 499.115 L 577.983 499.115 Z " fill="rgb(71,140,191)"/><path d=" M 648.256 401.565 C 630.096 401.565 615.365 416.281 615.365 434.444 C 615.365 452.619 630.095 467.342 648.256 467.342 C 666.425 467.342 681.152 452.619 681.152 434.444 C 681.152 416.281 666.425 401.565 648.256 401.565 L 648.256 401.565 Z  M 803.016 401.565 C 784.844 401.565 770.118 416.281 770.118 434.444 C 770.118 452.619 784.844 467.342 803.016 467.342 C 821.175 467.342 835.903 452.619 835.903 434.444 C 835.903 416.281 821.175 401.565 803.016 401.565 Z  M 725.629 420.805 C 719.781 420.805 715.041 425.119 715.041 430.428 L 715.041 460.711 C 715.041 466.024 719.781 470.334 725.629 470.334 C 731.478 470.334 736.229 466.024 736.229 460.711 L 736.229 430.428 C 736.229 425.119 731.478 420.805 725.629 420.805 Z " fill="rgb(255,255,255)"/><path d=" M 651.403 414.565 C 639.344 414.565 629.569 424.345 629.569 436.401 C 629.569 448.456 639.345 458.227 651.403 458.227 C 663.468 458.227 673.239 448.456 673.239 436.401 C 673.239 424.345 663.468 414.565 651.403 414.565 Z  M 799.863 414.565 C 787.807 414.565 778.039 424.345 778.039 436.401 C 778.039 448.456 787.808 458.227 799.863 458.227 C 811.931 458.227 821.697 448.456 821.697 436.401 C 821.697 424.345 811.931 414.565 799.863 414.565 L 799.863 414.565 Z " fill="rgb(65,64,66)"/><path d=" M 1077.538 189.181 C 1062.423 174.067 1037.918 174.067 1022.804 189.181 C 1007.689 204.295 1007.689 228.8 1022.804 243.915 C 1144.042 365.153 1144.042 560.548 1022.804 681.787 C 1007.689 696.901 1007.689 721.406 1022.804 736.52 C 1037.918 751.635 1062.423 751.635 1077.538 736.52 C 1228.357 585.701 1228.357 340 1077.538 189.181 Z  M 968.07 298.649 C 952.955 283.534 928.45 283.534 913.336 298.649 C 898.221 313.763 898.221 338.268 913.336 353.383 C 974.118 414.165 974.118 511.537 913.336 572.319 C 898.221 587.433 898.221 611.938 913.336 627.053 C 928.45 642.167 952.955 642.167 968.07 627.053 C 1058.43 536.692 1058.433 389.012 968.07 298.649 Z " fill-rule="evenodd" fill="rgb(70,70,70)"/><path d=" M 377.788 736.52 C 392.903 751.635 417.408 751.635 432.522 736.52 C 447.637 721.406 447.637 696.901 432.522 681.787 C 311.284 560.548 311.284 365.153 432.522 243.915 C 447.637 228.8 447.637 204.295 432.522 189.181 C 417.408 174.067 392.903 174.067 377.788 189.181 C 226.969 340 226.969 585.701 377.788 736.52 Z  M 487.256 627.053 C 502.371 642.167 526.876 642.167 541.99 627.053 C 557.105 611.938 557.105 587.433 541.99 572.319 C 481.208 511.537 481.208 414.165 541.99 353.383 C 557.105 338.268 557.105 313.763 541.99 298.649 C 526.876 283.534 502.371 283.534 487.256 298.649 C 396.896 389.009 396.893 536.69 487.256 627.053 Z " fill-rule="evenodd" fill="rgb(70,70,70)"/></g></svg>