<?xml version="1.0" encoding="UTF-8" standalone="no"?>
<!-- Created with Inkscape (http://www.inkscape.org/) -->

<svg
   xmlns:dc="http://purl.org/dc/elements/1.1/"
   xmlns:cc="http://creativecommons.org/ns#"
   xmlns:rdf="http://www.w3.org/1999/02/22-rdf-syntax-ns#"
   xmlns:svg="http://www.w3.org/2000/svg"
   xmlns="http://www.w3.org/2000/svg"
   xmlns:sodipodi="http://sodipodi.sourceforge.net/DTD/sodipodi-0.dtd"
   xmlns:inkscape="http://www.inkscape.org/namespaces/inkscape"
   width="210mm"
   height="297mm"
   viewBox="0 0 210 297"
   version="1.1"
   id="svg1057"
   inkscape:version="0.92.2 (5c3e80d, 2017-08-06)"
   sodipodi:docname="logo.svg"
   inkscape:export-filename="/home/binogure/image.png"
   inkscape:export-xdpi="16.360001"
   inkscape:export-ydpi="16.360001">
  <defs
     id="defs1051" />
  <sodipodi:namedview
     id="base"
     pagecolor="#ffffff"
     bordercolor="#666666"
     borderopacity="1.0"
     inkscape:pageopacity="0.0"
     inkscape:pageshadow="2"
     inkscape:zoom="0.55576172"
     inkscape:cx="-179.08696"
     inkscape:cy="940.62172"
     inkscape:document-units="mm"
     inkscape:current-layer="layer1"
     showgrid="false"
     inkscape:pagecheckerboard="true"
     showborder="false"
     inkscape:window-width="1920"
     inkscape:window-height="1021"
     inkscape:window-x="0"
     inkscape:window-y="0"
     inkscape:window-maximized="1" />
  <metadata
     id="metadata1054">
    <rdf:RDF>
      <cc:Work
         rdf:about="">
        <dc:format>image/svg+xml</dc:format>
        <dc:type
           rdf:resource="http://purl.org/dc/dcmitype/StillImage" />
        <dc:title></dc:title>
      </cc:Work>
    </rdf:RDF>
  </metadata>
  <g
     inkscape:label="Calque 1"
     inkscape:groupmode="layer"
     id="layer1">
    <g
       id="g1719"
       inkscape:export-xdpi="8.1800003"
       inkscape:export-ydpi="8.1800003">
      <path
         inkscape:connector-curvature="0"
         id="path1638"
         d="m 125.04926,169.84409 c 11.22843,-16.09482 17.81817,-35.65989 17.81817,-56.74762 0,-21.087686 -6.58977,-40.652326 -17.81817,-56.747136 l -7.33167,4.22817 c 10.50297,14.82492 16.67268,32.94254 16.67268,52.518966 0,19.57631 -6.16985,37.69433 -16.67268,52.51945 z m -163.147011,-0.0726 7.32935,-4.23141 c -10.46991,-14.81105 -16.61857,-32.90066 -16.61857,-52.44361 0,-19.543016 6.14902,-37.631816 16.61905,-52.442656 l -7.32983,-4.23188 c -11.1971,16.08098 -17.76591,35.61873 -17.76591,56.674536 0,21.05587 6.56879,40.59403 17.76591,56.67502 z M 101.17902,156.07837 c 8.96353,-11.99921 14.27534,-26.87947 14.27534,-42.9819 0,-16.102416 -5.31181,-30.982206 -14.27534,-42.981416 l -7.362195,4.24575 c 8.252965,10.71188 13.160385,24.13999 13.160385,38.735666 0,14.59582 -4.90728,28.02431 -13.160385,38.73616 z m -115.415311,-0.0833 7.357103,-4.24759 c -8.213403,-10.69788 -13.094723,-24.09377 -13.094723,-38.65106 0,-14.557126 4.88146,-27.952656 13.094723,-38.650566 l -7.357103,-4.24761 c -8.92595,11.98489 -14.21431,26.83263 -14.21431,42.898176 0,16.06554 5.28836,30.91376 14.21431,42.89865 z m 95.90365,-11.16906 c 7.172124,-8.61166 11.493251,-19.67642 11.493251,-31.72959 0,-12.05295 -4.320891,-23.117506 -11.492789,-31.729096 l -7.42971,4.2846 c 6.499304,7.27778 10.445342,16.887616 10.445342,27.444496 0,10.5569 -3.946038,20.1673 -10.445342,27.44497 z m -76.405867,-0.0879 7.423699,-4.28599 C 6.233475,133.18528 2.319855,123.61032 2.319852,113.09647 c 0,-10.51384 3.913623,-20.088216 10.365339,-27.355256 l -7.423699,-4.28597 c -7.127559,8.59887 -11.418334,19.629456 -11.418334,31.641226 0,12.01189 4.290652,23.0428 11.418334,31.64172 z"
         style="color:#000000;font-style:normal;font-variant:normal;font-weight:normal;font-stretch:normal;font-size:medium;line-height:normal;font-family:sans-serif;font-variant-ligatures:normal;font-variant-position:normal;font-variant-caps:normal;font-variant-numeric:normal;font-variant-alternates:normal;font-feature-settings:normal;text-indent:0;text-align:start;text-decoration:none;text-decoration-line:none;text-decoration-style:solid;text-decoration-color:#000000;letter-spacing:normal;word-spacing:normal;text-transform:none;writing-mode:lr-tb;direction:ltr;text-orientation:mixed;dominant-baseline:auto;baseline-shift:baseline;text-anchor:start;white-space:normal;shape-padding:0;clip-rule:nonzero;display:inline;overflow:visible;visibility:visible;opacity:1;isolation:auto;mix-blend-mode:normal;color-interpolation:sRGB;color-interpolation-filters:linearRGB;solid-color:#000000;solid-opacity:1;vector-effect:none;fill:#12171e;fill-opacity:0.99215686;fill-rule:nonzero;stroke:none;stroke-width:9.47287655;stroke-linecap:butt;stroke-linejoin:miter;stroke-miterlimit:4;stroke-dasharray:none;stroke-dashoffset:125;stroke-opacity:1;paint-order:normal;color-rendering:auto;image-rendering:auto;shape-rendering:auto;text-rendering:auto;enable-background:accumulate" />
      <g
         style="stroke-width:1.07929921"
         transform="matrix(0.92652719,0,0,0.92652719,2.2595142,9.5040505)"
         id="g1680">
        <g
           id="g78"
           transform="matrix(0.39901053,0,0,-0.39901053,83.549221,127.02121)"
           style="stroke-width:0.95424229">
          <path
             d="m 0,0 c 0,0 -0.325,1.994 -0.515,1.976 l -36.182,-3.491 c -2.879,-0.278 -5.115,-2.574 -5.317,-5.459 l -0.994,-14.247 -27.992,-1.997 -1.904,12.912 c -0.424,2.872 -2.932,5.037 -5.835,5.037 h -38.188 c -2.902,0 -5.41,-2.165 -5.834,-5.037 l -1.905,-12.912 -27.992,1.997 -0.994,14.247 c -0.202,2.886 -2.438,5.182 -5.317,5.46 l -36.2,3.49 c -0.187,0.018 -0.324,-1.978 -0.511,-1.978 l -0.049,-7.83 30.658,-4.944 1.004,-14.374 c 0.203,-2.91 2.551,-5.263 5.463,-5.472 l 38.551,-2.75 c 0.146,-0.01 0.29,-0.016 0.434,-0.016 2.897,0 5.401,2.166 5.825,5.038 l 1.959,13.286 h 28.005 l 1.959,-13.286 c 0.423,-2.871 2.93,-5.037 5.831,-5.037 0.142,0 0.284,0.005 0.423,0.015 l 38.556,2.75 c 2.911,0.209 5.26,2.562 5.463,5.472 l 1.003,14.374 30.645,4.966 z"
             style="fill:#ffffff;fill-opacity:1;fill-rule:nonzero;stroke:none;stroke-width:0.95424229"
             id="path80"
             inkscape:connector-curvature="0" />
        </g>
        <g
           id="g82"
           transform="matrix(0.39901053,0,0,-0.39901053,5.4706737,103.46323)"
           style="stroke-width:0.95424229">
          <path
             d="m 0,0 v -47.514 -6.035 -5.492 c 0.108,-0.001 0.216,-0.005 0.323,-0.015 l 36.196,-3.49 c 1.896,-0.183 3.382,-1.709 3.514,-3.609 l 1.116,-15.978 31.574,-2.253 2.175,14.747 c 0.282,1.912 1.922,3.329 3.856,3.329 h 38.188 c 1.933,0 3.573,-1.417 3.855,-3.329 l 2.175,-14.747 31.575,2.253 1.115,15.978 c 0.133,1.9 1.618,3.425 3.514,3.609 l 36.182,3.49 c 0.107,0.01 0.214,0.014 0.322,0.015 v 4.711 l 0.015,0.005 V 0 h 0.134 c 4.795,6.12 9.232,12.569 13.487,19.449 -5.651,9.62 -12.575,18.217 -19.976,26.182 -6.864,-3.455 -13.531,-7.369 -19.828,-11.534 -3.151,3.132 -6.7,5.694 -10.186,8.372 -3.425,2.751 -7.285,4.768 -10.946,7.118 1.09,8.117 1.629,16.108 1.846,24.448 -9.446,4.754 -19.519,7.906 -29.708,10.17 -4.068,-6.837 -7.788,-14.241 -11.028,-21.479 -3.842,0.642 -7.702,0.88 -11.567,0.926 v 0.006 c -0.027,0 -0.052,-0.006 -0.075,-0.006 -0.024,0 -0.049,0.006 -0.073,0.006 V 63.652 C 93.903,63.606 90.046,63.368 86.203,62.726 82.965,69.964 79.247,77.368 75.173,84.205 64.989,81.941 54.915,78.789 45.47,74.035 45.686,65.695 46.225,57.704 47.318,49.587 43.65,47.237 39.795,45.22 36.369,42.469 32.888,39.791 29.333,37.229 26.181,34.097 19.884,38.262 13.219,42.176 6.353,45.631 -1.048,37.666 -7.968,29.069 -13.621,19.449 -9.368,12.569 -4.928,6.12 -0.134,0 Z"
             style="fill:#478cbf;fill-opacity:1;fill-rule:nonzero;stroke:none;stroke-width:0.95424229"
             id="path84"
             inkscape:connector-curvature="0" />
        </g>
        <g
           id="g86"
           transform="matrix(0.39901053,0,0,-0.39901053,70.592469,131.38945)"
           style="stroke-width:0.95424229">
          <path
             d="m 0,0 -1.121,-16.063 c -0.135,-1.936 -1.675,-3.477 -3.611,-3.616 l -38.555,-2.751 c -0.094,-0.007 -0.188,-0.01 -0.281,-0.01 -1.916,0 -3.569,1.406 -3.852,3.33 l -2.211,14.994 H -81.09 l -2.211,-14.994 c -0.297,-2.018 -2.101,-3.469 -4.133,-3.32 l -38.555,2.751 c -1.936,0.139 -3.476,1.68 -3.611,3.616 L -130.721,0 -163.268,3.138 c 0.015,-3.498 0.06,-7.33 0.06,-8.093 0,-34.374 43.605,-50.896 97.781,-51.086 h 0.066 0.067 c 54.176,0.19 97.766,16.712 97.766,51.086 0,0.777 0.047,4.593 0.063,8.093 z"
             style="fill:#478cbf;fill-opacity:1;fill-rule:nonzero;stroke:none;stroke-width:0.95424229"
             id="path88"
             inkscape:connector-curvature="0" />
        </g>
        <g
           id="g90"
           transform="matrix(0.39901053,0,0,-0.39901053,32.743167,113.02619)"
           style="stroke-width:0.95424229">
          <path
             d="m 0,0 c 0,-12.052 -9.765,-21.815 -21.813,-21.815 -12.042,0 -21.81,9.763 -21.81,21.815 0,12.044 9.768,21.802 21.81,21.802 C -9.765,21.802 0,12.044 0,0"
             style="fill:#ffffff;fill-opacity:1;fill-rule:nonzero;stroke:none;stroke-width:0.95424229"
             id="path92"
             inkscape:connector-curvature="0" />
        </g>
        <g
           id="g94"
           transform="matrix(0.39901053,0,0,-0.39901053,30.648918,113.54243)"
           style="stroke-width:0.95424229">
          <path
             d="m 0,0 c 0,-7.994 -6.479,-14.473 -14.479,-14.473 -7.996,0 -14.479,6.479 -14.479,14.473 0,7.994 6.483,14.479 14.479,14.479 C -6.479,14.479 0,7.994 0,0"
             style="fill:#414042;fill-opacity:1;fill-rule:nonzero;stroke:none;stroke-width:0.95424229"
             id="path96"
             inkscape:connector-curvature="0" />
        </g>
        <g
           id="g98"
           transform="matrix(0.39901053,0,0,-0.39901053,44.512223,122.52248)"
           style="stroke-width:0.95424229">
          <path
             d="m 0,0 c -3.878,0 -7.021,2.858 -7.021,6.381 v 20.081 c 0,3.52 3.143,6.381 7.021,6.381 3.878,0 7.028,-2.861 7.028,-6.381 V 6.381 C 7.028,2.858 3.878,0 0,0"
             style="fill:#ffffff;fill-opacity:1;fill-rule:nonzero;stroke:none;stroke-width:0.95424229"
             id="path100"
             inkscape:connector-curvature="0" />
        </g>
        <g
           id="g102"
           transform="matrix(0.39901053,0,0,-0.39901053,56.282715,113.02619)"
           style="stroke-width:0.95424229">
          <path
             d="m 0,0 c 0,-12.052 9.765,-21.815 21.815,-21.815 12.041,0 21.808,9.763 21.808,21.815 0,12.044 -9.767,21.802 -21.808,21.802 C 9.765,21.802 0,12.044 0,0"
             style="fill:#ffffff;fill-opacity:1;fill-rule:nonzero;stroke:none;stroke-width:0.95424229"
             id="path104"
             inkscape:connector-curvature="0" />
        </g>
        <g
           id="g106"
           transform="matrix(0.39901053,0,0,-0.39901053,58.377482,113.54243)"
           style="stroke-width:0.95424229">
          <path
             d="m 0,0 c 0,-7.994 6.477,-14.473 14.471,-14.473 8.002,0 14.479,6.479 14.479,14.473 0,7.994 -6.477,14.479 -14.479,14.479 C 6.477,14.479 0,7.994 0,0"
             style="fill:#414042;fill-opacity:1;fill-rule:nonzero;stroke:none;stroke-width:0.95424229"
             id="path108"
             inkscape:connector-curvature="0" />
        </g>
      </g>
    </g>
  </g>
</svg>
